<svg width="24" height="24" viewBox="0 0 24 24" fill="none" xmlns="http://www.w3.org/2000/svg">
<path d="M12 0C8.74 0 8.34 -7.45058e-08 7.06 0.0799999C5.78 0.14 4.9 0.34 4.14 0.62C3.34 0.94 2.68 1.34 2.02 2.02C1.34 2.68 0.94 3.36 0.62 4.14C0.34 4.9 0.14 5.78 0.0799999 7.06C-7.45058e-08 8.34 0 8.74 0 12C0 15.26 -7.45058e-08 15.66 0.0799999 16.94C0.14 18.22 0.34 19.1 0.62 19.86C0.94 20.66 1.34 21.32 2.02 21.98C2.68 22.66 3.36 23.06 4.14 23.38C4.9 23.66 5.78 23.86 7.06 23.92C8.34 23.98 8.74 24 12 24C15.26 24 15.66 24 16.94 23.92C17.9379 23.8988 18.9251 23.7094 19.86 23.36C20.66 23.06 21.32 22.66 21.98 21.98C22.66 21.32 23.06 20.66 23.38 19.86C23.66 19.1 23.86 18.22 23.92 16.94C24 15.66 24 15.26 24 12C24 8.74 24 8.34 23.92 7.06C23.8988 6.06211 23.7094 5.07494 23.36 4.14C23.06 3.34 22.66 2.68 21.98 2.02C21.3846 1.40342 20.6608 0.925441 19.86 0.62C18.9242 0.276265 17.9369 0.0936781 16.94 0.0799999C15.66 -7.45058e-08 15.26 0 12 0ZM12 2.16C15.2 2.16 15.6 2.16 16.86 2.24C18.02 2.28 18.66 2.48 19.06 2.64C19.64 2.86 20.04 3.12 20.46 3.54C20.86 3.96 21.14 4.36 21.36 4.94C21.52 5.34 21.72 5.98 21.76 7.14C21.82 8.42 21.84 8.8 21.84 12C21.84 15.2 21.84 15.6 21.76 16.86C21.7 18.02 21.5 18.66 21.36 19.06C21.1613 19.5893 20.847 20.0676 20.44 20.46C20.04 20.86 19.62 21.14 19.06 21.36C18.66 21.52 18 21.72 16.82 21.76C15.56 21.82 15.18 21.84 11.98 21.84C8.76 21.84 8.38 21.84 7.12 21.76C6.35617 21.7534 5.5989 21.6182 4.88 21.36C4.34945 21.1638 3.87065 20.8491 3.48 20.44C3.08571 20.0528 2.78477 19.5808 2.6 19.06C2.33498 18.3423 2.19299 17.585 2.18 16.82C2.14 15.56 2.12 15.18 2.12 11.98C2.12 8.78 2.12 8.38 2.18 7.12C2.24 5.96 2.44 5.32 2.58 4.9C2.8 4.32 3.08 3.92 3.5 3.5C3.9 3.1 4.3 2.82 4.88 2.62C5.28 2.44 5.92 2.24 7.08 2.2C8.38 2.14 8.74 2.12 11.96 2.12L12 2.16V2.16ZM12 5.84C10.3663 5.84 8.79945 6.489 7.64422 7.64422C6.489 8.79945 5.84 10.3663 5.84 12C5.84 13.6337 6.489 15.2006 7.64422 16.3558C8.79945 17.511 10.3663 18.16 12 18.16C13.6337 18.16 15.2006 17.511 16.3558 16.3558C17.511 15.2006 18.16 13.6337 18.16 12C18.16 10.3663 17.511 8.79945 16.3558 7.64422C15.2006 6.489 13.6337 5.84 12 5.84ZM12 16C10.9391 16 9.92172 15.5786 9.17157 14.8284C8.42143 14.0783 8 13.0609 8 12C8 10.9391 8.42143 9.92172 9.17157 9.17157C9.92172 8.42143 10.9391 8 12 8C13.0609 8 14.0783 8.42143 14.8284 9.17157C15.5786 9.92172 16 10.9391 16 12C16 13.0609 15.5786 14.0783 14.8284 14.8284C14.0783 15.5786 13.0609 16 12 16ZM19.84 5.6C19.84 5.7891 19.8028 5.97636 19.7304 6.15106C19.658 6.32577 19.552 6.48452 19.4182 6.61823C19.2845 6.75195 19.1258 6.85802 18.9511 6.93039C18.7764 7.00275 18.5891 7.04 18.4 7.04C18.2109 7.04 18.0236 7.00275 17.8489 6.93039C17.6742 6.85802 17.5155 6.75195 17.3818 6.61823C17.248 6.48452 17.142 6.32577 17.0696 6.15106C16.9972 5.97636 16.96 5.7891 16.96 5.6C16.96 5.21809 17.1117 4.85182 17.3818 4.58177C17.6518 4.31171 18.0181 4.16 18.4 4.16C18.7819 4.16 19.1482 4.31171 19.4182 4.58177C19.6883 4.85182 19.84 5.21809 19.84 5.6V5.6Z" fill="black"/>
</svg>
