
<svg width="33" height="36" viewBox="0 0 33 36" fill="none" xmlns="http://www.w3.org/2000/svg">
<path d="M29.6555 30.5762C28.3173 30.3025 27.04 29.9983 25.9756 29.7855L24.1812 29.3901L24.3941 27.5653C24.3941 27.4741 24.4245 27.3829 24.4245 27.2916C24.4245 26.8963 24.3637 26.5313 24.2116 26.1664L23.7859 25.1932L24.3637 24.2808C24.6982 23.7334 24.8503 23.1251 24.8503 22.4256C24.8503 21.6957 24.6374 21.057 24.242 20.5096L23.5426 19.5668L23.9987 18.472C24.1812 18.0462 24.2725 17.59 24.2725 17.1338C24.2725 16.4952 24.2725 14.5792 21.2616 13.4235C20.8358 13.2714 19.9843 13.0281 18.4028 12.9369L15.1487 12.724L16.6997 9.8956C17.9466 7.64509 18.6461 5.60745 18.6461 4.17806C18.6461 2.87032 18.2204 1.71464 17.2472 1.31927C13.8714 -0.14053 11.4688 2.14041 9.7657 4.93837C8.39709 7.21932 6.69398 10.1389 5.65995 12.2982C3.43983 16.9818 0.155273 20.3576 0.155273 25.0411C0.155273 29.2989 3.01406 32.6442 8.24502 34.4082C14.6621 36.5675 24.242 37.1453 28.4086 37.1453C31.389 37.1453 33.0313 35.9896 33.0313 33.8607C33.0313 31.6406 30.9328 30.8499 29.6555 30.5762Z" fill="#FFD338"/>
<path d="M29.3177 29.6908C25.8507 28.9305 22.8703 28.2918 22.8703 28.2918C23.3873 27.9269 23.9347 27.1666 23.9347 26.2238C23.9347 25.1289 23.3569 24.4903 22.9007 24.1557C23.5089 23.6995 24.3301 22.8784 24.3301 21.3882C24.3301 19.7763 23.2352 18.9552 22.6574 18.5598C23.1136 18.134 23.7522 17.2825 23.7522 16.0964C23.7522 13.9979 22.1404 13.0551 20.8326 12.5381C19.7682 12.1427 17.761 11.9907 15.997 11.9907C13.1078 11.9907 10.4923 12.2036 9.24543 12.2036C7.75521 12.2036 7.93769 11.4433 8.48511 10.7438C8.81965 10.3484 13.047 4.7829 13.8377 3.77928C14.3852 3.04938 15.0238 2.34989 15.5104 2.6236C16.0274 2.89732 15.8145 4.17464 15.2671 5.57362C14.446 7.76333 13.2903 9.16231 13.0166 9.64891L14.963 10.835C15.7233 9.89221 18.1867 5.78651 18.1867 3.14062C18.1867 1.95452 17.7305 0.950909 16.8486 0.403482C15.9666 -0.113532 14.8413 -0.0831188 13.8377 0.525133C13.1687 0.920497 12.4996 1.49834 11.9217 2.22824C10.4011 4.17464 7.17737 8.24993 5.99128 9.77056C4.28818 11.9907 5.0789 14.7278 8.698 14.7278C9.97533 14.7278 14.1419 14.4237 15.7537 14.4237C17.6089 14.4237 18.5213 14.5149 19.1599 14.6062C20.3764 14.7886 21.0759 15.3361 21.0759 16.066C21.0759 16.583 20.8326 16.9479 20.4068 17.2521C19.9811 17.5562 19.5857 18.0124 19.5857 18.651C19.5857 19.4114 20.2852 19.7155 20.7414 20.0196C21.3496 20.415 21.7146 20.6887 21.7146 21.3273C21.7146 21.9052 21.2888 22.2397 20.8022 22.6047C20.4069 22.9088 19.8898 23.2433 19.8898 23.9428C19.8898 24.5815 20.346 24.8856 20.6502 25.1289C20.9543 25.3722 21.2888 25.6459 21.2888 26.1629C21.2888 26.68 21.0455 26.9233 20.4373 27.2882C19.9507 27.5619 19.2512 28.0789 19.2512 28.8088C19.2512 29.63 19.829 29.9949 20.5285 30.1774C22.2012 30.5728 27.1889 31.6372 28.892 32.0326C29.4394 32.1542 29.9868 32.3367 29.9868 32.7929C29.9868 33.2491 29.2569 33.462 28.2229 33.462C24.6342 33.462 14.6589 32.7321 8.78924 30.6944C4.80519 29.3563 2.61548 26.8929 2.61548 23.9428C2.61548 21.3882 4.31859 19.1072 6.17376 17.7995L4.50106 16.0964C1.82476 17.9515 0 20.9016 0 24.0037C0 27.5923 2.12888 31.2419 7.99851 33.2187C14.2331 35.3171 23.6914 35.9558 28.1012 35.9558C31.1121 35.9558 32.5719 34.7089 32.5719 32.8233C32.5415 31.029 31.0817 30.0558 29.3177 29.6908Z" fill="#222222"/>
</svg>
